# xmcd
#
# Track frame offsets: 
#        150
#        10712
#        21493
#        30051
#        41812
#        53178
#        64040
#        74250
#        86585
#        95853
#        106654
#        116479
#        130809
#        144636
#        159503
#        174627
#        188761
#        205432
#        217641
#        235889
#        253903
#        268370
#
# Disc length: 3778 seconds
#
# Revision: 0
# Processed by: cddbd v1.5.2PL0 Copyright (c) Steve Scherf et al.
# Submitted via: ExactAudioCopy v0.95b1
#
DISCID=390ec016
DTITLE=Various Artist - Country Collection and Greatest Country Hits
DYEAR=1900
DGENRE=
TTITLE0=patsy cline - honky tonk merry go round
TTITLE1=waylon jennings - sally was a good old girl
TTITLE2=conway twitty - blues is the way i feel
TTITLE3=willie nelson - is there something on your mind
TTITLE4=b.j. thomas - how many tears will it take
TTITLE5=donna fargo - wishful thinking
TTITLE6=faron young - hello walls
TTITLE7=stonewall jackson - ol' blue
TTITLE8=george jones - the race is on
TTITLE9=faron young - wire me up
TTITLE10=buck owens - rhythm and booze
TTITLE11=george jones - cold cold heart
TTITLE12=dwight yoakam - guitars, cadillacs
TTITLE13=highway 101 - somewhere tonight
TTITLE14=the forester sisters - (i'd choose) you again
TTITLE15=randy travis - on the other hand
TTITLE16=john anderson - i'm just an old chunk of coal
TTITLE17=hank williams jr. - born to boogie
TTITLE18=dolly parton, linda ronstadt and emmylou harris - those memorie
TTITLE18=s of you
TTITLE19=crystal gayle - you and i
TTITLE20=travis tritt - country club
TTITLE21=nitty gritty dirt band - long hard road
EXTD=
EXTT0=
EXTT1=
EXTT2=
EXTT3=
EXTT4=
EXTT5=
EXTT6=
EXTT7=
EXTT8=
EXTT9=
EXTT10=
EXTT11=
EXTT12=
EXTT13=
EXTT14=
EXTT15=
EXTT16=
EXTT17=
EXTT18=
EXTT19=
EXTT20=
EXTT21=
PLAYORDER=
